<?xml version="1.0" standalone="no"?>
<!DOCTYPE svg PUBLIC "-//W3C//DTD SVG 20010904//EN"
 "http://www.w3.org/TR/2001/REC-SVG-20010904/DTD/svg10.dtd">
<svg version="1.0" xmlns="http://www.w3.org/2000/svg"
 width="200.000000pt" height="200.000000pt" viewBox="0 0 200.000000 200.000000"
 preserveAspectRatio="xMidYMid meet">

<g transform="translate(0.000000,200.000000) scale(0.100000,-0.100000)"
fill="#000000" stroke="none">
<path d="M0 1000 l0 -1000 1000 0 1000 0 0 1000 0 1000 -1000 0 -1000 0 0
-1000z m1440 185 c10 -12 10 -18 0 -30 -25 -30 -61 -7 -46 30 3 8 12 15 19 15
8 0 20 -7 27 -15z m-1053 -42 c9 -24 -35 -283 -54 -311 -9 -15 -22 -22 -35
-20 -41 6 -44 28 -19 175 13 76 27 146 33 156 12 23 66 23 75 0z m873 -23 l0
-40 40 0 c33 0 40 -3 40 -20 0 -17 -7 -20 -40 -20 l-40 0 0 -72 c0 -88 15
-121 55 -128 18 -3 30 -11 30 -20 0 -26 -76 -15 -102 15 -20 23 -23 37 -23
115 l0 89 -27 3 c-17 2 -28 9 -28 18 0 9 11 16 28 18 24 3 27 7 27 43 0 32 3
39 20 39 17 0 20 -7 20 -40z m-1015 -14 c18 -13 19 -19 7 -102 -17 -115 -28
-139 -67 -139 -24 0 -31 5 -34 25 -6 46 22 193 41 212 22 22 28 22 53 4z m587
-53 c20 -22 23 -36 26 -127 3 -82 1 -105 -12 -115 -12 -10 -17 -9 -27 7 -13
20 -13 20 -37 1 -63 -49 -165 12 -146 87 8 33 37 48 109 54 56 5 60 7 63 32 5
40 -31 60 -83 47 -86 -22 -85 -22 -85 -6 0 20 26 34 77 45 54 11 88 4 115 -25z
m-347 10 c16 -16 16 -57 -2 -131 -6 -24 -42 -38 -69 -28 -27 10 -14 134 16
158 27 22 34 22 55 1z m623 1 c21 -14 31 -44 15 -44 -4 0 -26 7 -48 16 -52 20
-95 7 -95 -30 0 -24 2 -25 95 -58 51 -18 74 -55 57 -93 -17 -36 -74 -59 -128
-50 -52 7 -95 38 -78 55 9 9 19 8 42 -4 39 -20 96 -21 112 -1 23 28 7 48 -60
71 -96 34 -117 79 -59 128 36 31 110 36 147 10z m330 -118 c1 -71 -1 -133 -6
-138 -5 -5 -16 -6 -25 -2 -15 5 -17 24 -17 133 0 70 3 131 7 135 4 4 14 5 23
4 12 -3 15 -25 18 -132z m265 113 c28 -22 54 -88 44 -113 -5 -13 -24 -16 -102
-16 -95 0 -96 0 -90 -22 17 -60 85 -84 147 -52 23 12 33 13 42 4 16 -17 -24
-47 -74 -55 -77 -13 -144 29 -160 102 -12 51 4 109 40 145 24 23 37 28 78 28
35 0 57 -6 75 -21z m154 1 c5 -20 5 -20 30 0 33 26 86 27 81 3 -2 -10 -17 -20
-38 -24 -57 -12 -70 -38 -70 -140 0 -89 -9 -111 -35 -89 -12 10 -15 40 -15
135 0 67 3 125 7 128 13 14 35 7 40 -13z m-1734 -57 c-2 -73 -15 -103 -47
-103 -37 0 -48 22 -40 77 12 82 20 95 56 91 l33 -3 -2 -62z"/>
<path d="M698 919 c-39 -22 -9 -79 41 -79 33 0 71 37 71 68 0 20 -5 22 -47 22
-27 0 -56 -5 -65 -11z"/>
<path d="M1588 1030 c-14 -11 -28 -29 -31 -40 -5 -19 -1 -20 75 -20 78 0 79 1
73 23 -16 54 -73 72 -117 37z"/>
</g>
</svg>
