<svg id="svg" version="1.1" xmlns="http://www.w3.org/2000/svg" xmlns:xlink="http://www.w3.org/1999/xlink" width="400" height="400" viewBox="0, 0, 400,400"><g id="svgg"><path id="path0" d="M0.000 200.000 L 0.000 400.000 200.000 400.000 L 400.000 400.000 400.000 200.000 L 400.000 0.000 200.000 0.000 L 0.000 0.000 0.000 200.000 M285.931 160.331 C 286.332 160.732,286.964 161.177,287.334 161.319 C 287.704 161.461,288.228 162.078,288.499 162.689 C 288.769 163.300,289.218 164.038,289.495 164.329 C 290.166 165.031,290.140 167.403,289.453 168.090 C 289.152 168.391,288.786 169.013,288.640 169.473 C 287.323 173.623,277.200 172.921,277.200 168.680 C 277.200 168.360,276.930 167.874,276.600 167.600 C 275.921 167.037,275.789 164.978,276.406 164.596 C 276.629 164.458,277.071 163.725,277.388 162.967 C 277.705 162.209,278.273 161.470,278.651 161.325 C 279.030 161.180,279.668 160.732,280.069 160.331 C 280.600 159.800,281.403 159.600,283.000 159.600 C 284.597 159.600,285.400 159.800,285.931 160.331 M73.126 167.032 C 77.715 169.114,80.365 173.864,79.220 177.956 C 78.936 178.970,78.563 181.330,78.391 183.200 C 78.220 185.070,77.794 187.427,77.445 188.439 C 77.095 189.450,76.619 192.150,76.386 194.439 C 76.153 196.727,75.703 199.230,75.386 200.000 C 75.069 200.770,74.548 203.708,74.230 206.529 C 73.911 209.350,73.443 211.907,73.191 212.211 C 72.938 212.515,72.576 214.557,72.386 216.748 C 72.195 218.938,71.770 221.377,71.440 222.166 C 71.110 222.956,70.638 225.437,70.391 227.679 C 69.469 236.060,65.438 239.583,57.864 238.628 C 52.796 237.989,48.518 230.265,50.834 225.936 C 51.073 225.489,51.438 223.324,51.645 221.123 C 51.852 218.923,52.285 216.492,52.607 215.721 C 52.929 214.951,53.400 212.223,53.653 209.660 C 53.906 207.097,54.349 204.530,54.638 203.956 C 54.927 203.381,55.372 200.861,55.627 198.356 C 55.883 195.850,56.431 192.816,56.846 191.614 C 57.261 190.411,57.600 188.516,57.600 187.401 C 57.600 186.286,57.871 184.390,58.203 183.187 C 58.832 180.905,59.395 177.926,59.806 174.705 C 59.939 173.662,60.307 172.550,60.624 172.233 C 60.941 171.916,61.200 171.470,61.200 171.242 C 61.200 170.492,64.008 168.000,65.721 167.228 C 69.143 165.688,70.107 165.663,73.126 167.032 M251.169 167.730 C 252.724 168.485,253.136 170.414,253.170 177.100 C 253.186 180.455,253.245 183.226,253.300 183.258 C 253.355 183.290,256.492 183.425,260.272 183.558 L 267.144 183.800 268.555 185.400 C 270.602 187.720,270.511 188.321,267.578 191.900 C 267.283 192.260,265.461 192.402,261.084 192.405 C 257.738 192.408,254.595 192.519,254.100 192.652 L 253.200 192.893 253.214 205.947 C 253.225 215.742,253.371 219.649,253.800 221.600 C 254.115 223.030,254.378 224.750,254.386 225.422 C 254.400 226.675,256.629 229.600,257.570 229.600 C 257.824 229.600,258.775 229.979,259.683 230.442 C 260.770 230.997,262.431 231.360,264.543 231.505 C 269.670 231.856,272.673 236.135,269.300 238.282 C 268.695 238.667,268.106 239.109,267.992 239.266 C 267.140 240.430,258.463 240.414,257.056 239.246 C 256.783 239.020,255.759 238.713,254.780 238.564 C 251.495 238.065,246.039 233.811,245.400 231.252 C 245.256 230.673,244.849 229.880,244.497 229.489 C 243.514 228.398,243.182 223.696,242.946 207.538 C 242.699 190.589,243.328 192.415,237.739 192.405 C 232.000 192.396,229.493 188.481,232.987 184.987 C 234.344 183.629,234.442 183.600,237.687 183.595 C 243.101 183.586,242.800 183.887,242.800 178.486 C 242.800 173.971,243.327 169.489,243.982 168.429 C 244.821 167.071,248.980 166.667,251.169 167.730 M48.217 176.913 C 52.262 179.414,54.835 184.771,53.479 187.870 C 53.111 188.711,52.548 191.708,52.230 194.529 C 51.911 197.350,51.443 199.907,51.191 200.211 C 50.938 200.515,50.576 202.557,50.386 204.748 C 50.195 206.938,49.768 209.381,49.435 210.177 C 49.103 210.972,48.630 213.553,48.385 215.911 C 48.129 218.369,47.637 220.798,47.233 221.600 C 46.845 222.370,46.401 223.512,46.247 224.137 C 44.903 229.577,35.136 231.228,30.918 226.728 C 28.126 223.749,27.038 217.293,28.779 214.039 C 29.048 213.537,29.425 211.455,29.619 209.412 C 29.812 207.370,30.245 204.911,30.580 203.949 C 30.916 202.987,31.398 200.130,31.652 197.600 C 31.906 195.070,32.344 192.541,32.626 191.979 C 32.908 191.418,33.335 189.193,33.576 187.034 C 33.890 184.215,34.237 182.825,34.807 182.100 C 35.243 181.546,35.600 180.900,35.600 180.665 C 35.600 180.124,38.026 177.600,38.547 177.600 C 38.761 177.600,39.259 177.309,39.652 176.953 C 41.359 175.408,45.752 175.388,48.217 176.913 M156.649 183.121 C 159.792 183.644,161.422 184.117,162.203 184.731 C 162.811 185.209,163.467 185.600,163.662 185.600 C 164.261 185.600,168.378 189.701,168.655 190.574 C 168.799 191.026,169.177 191.587,169.495 191.820 C 169.814 192.053,170.239 193.134,170.441 194.222 C 170.644 195.310,171.122 196.830,171.504 197.600 C 172.136 198.870,172.200 200.748,172.200 217.880 L 172.200 236.760 170.619 238.380 C 167.311 241.768,162.662 239.931,161.563 234.801 C 161.151 232.882,161.047 232.721,160.744 233.538 C 160.554 234.054,160.044 234.568,159.612 234.681 C 159.180 234.794,158.718 235.227,158.586 235.643 C 158.454 236.059,158.187 236.400,157.994 236.400 C 157.800 236.400,157.176 236.831,156.608 237.358 C 156.039 237.885,154.905 238.440,154.087 238.592 C 153.269 238.744,152.265 239.167,151.856 239.534 C 150.773 240.503,141.211 240.493,140.128 239.521 C 139.728 239.162,138.680 238.740,137.800 238.584 C 136.920 238.429,135.840 237.984,135.400 237.597 C 134.960 237.209,134.240 236.781,133.800 236.646 C 131.979 236.086,127.989 231.110,127.369 228.627 C 127.208 227.981,126.835 226.991,126.541 226.427 C 125.815 225.037,125.833 220.016,126.567 218.969 C 126.879 218.523,127.260 217.488,127.414 216.667 C 127.939 213.868,132.181 210.101,135.600 209.399 C 136.370 209.240,137.306 208.841,137.680 208.511 C 138.362 207.910,140.825 207.625,152.600 206.785 C 160.556 206.217,161.162 206.089,161.457 204.916 C 161.908 203.117,161.351 197.360,160.646 196.547 C 160.290 196.136,159.381 195.072,158.627 194.183 C 157.324 192.645,152.379 191.042,150.600 191.580 C 150.380 191.647,148.167 191.943,145.683 192.239 C 142.811 192.581,140.947 192.995,140.565 193.378 C 140.235 193.708,139.226 194.178,138.324 194.421 C 137.422 194.663,136.187 195.229,135.580 195.678 C 130.158 199.686,124.497 193.961,129.300 189.326 C 130.235 188.424,131.442 187.553,131.981 187.390 C 132.521 187.228,133.204 186.853,133.499 186.558 C 133.794 186.263,134.793 185.806,135.718 185.542 C 136.643 185.278,137.702 184.807,138.071 184.495 C 138.464 184.164,140.783 183.690,143.671 183.352 C 146.382 183.034,148.960 182.605,149.400 182.398 C 149.840 182.191,150.650 182.102,151.200 182.201 C 151.750 182.299,154.202 182.713,156.649 183.121 M212.914 183.179 C 215.547 183.582,217.930 184.164,218.314 184.497 C 218.691 184.824,219.528 185.218,220.173 185.372 C 221.642 185.722,223.296 186.978,225.609 189.496 C 227.086 191.105,227.354 194.033,226.190 195.851 C 225.193 197.410,221.296 197.226,219.374 195.529 C 218.920 195.128,218.360 194.800,218.130 194.800 C 217.900 194.800,217.052 194.352,216.245 193.805 C 215.439 193.258,214.379 192.730,213.890 192.632 C 205.718 190.999,206.039 191.030,204.071 191.700 C 203.042 192.051,201.543 192.447,200.739 192.580 C 199.801 192.735,199.046 193.176,198.630 193.811 C 198.273 194.355,197.722 194.800,197.405 194.800 C 196.929 194.800,196.299 197.196,196.299 199.000 C 196.299 200.690,196.932 203.200,197.358 203.200 C 197.650 203.200,198.559 203.655,199.379 204.212 C 200.199 204.768,201.799 205.416,202.935 205.652 C 204.071 205.887,205.378 206.318,205.841 206.610 C 206.303 206.902,208.095 207.338,209.822 207.578 C 211.549 207.818,213.338 208.261,213.797 208.561 C 214.256 208.862,215.640 209.318,216.871 209.573 C 218.103 209.829,219.429 210.390,219.817 210.819 C 220.206 211.249,220.757 211.600,221.041 211.600 C 221.499 211.600,223.066 212.796,224.200 214.011 C 224.420 214.246,225.005 214.823,225.500 215.292 C 225.995 215.761,226.400 216.358,226.400 216.618 C 226.400 216.879,226.805 217.607,227.300 218.236 C 228.473 219.727,228.662 227.381,227.557 228.657 C 227.203 229.066,226.719 229.980,226.481 230.689 C 226.100 231.826,224.851 233.243,222.200 235.547 C 220.472 237.048,218.126 238.326,216.614 238.591 C 215.741 238.744,214.481 239.157,213.814 239.509 C 211.406 240.780,197.810 240.510,196.985 239.176 C 196.865 238.982,195.848 238.701,194.724 238.552 C 193.601 238.403,192.366 237.966,191.981 237.581 C 191.596 237.196,190.715 236.757,190.023 236.605 C 189.331 236.453,188.296 235.895,187.724 235.364 C 187.151 234.834,186.545 234.400,186.376 234.400 C 185.590 234.400,183.600 230.972,183.602 229.621 C 183.606 226.327,187.882 224.333,190.509 226.400 C 191.069 226.840,191.698 227.200,191.907 227.200 C 192.117 227.200,192.954 227.652,193.767 228.203 C 194.580 228.755,196.064 229.390,197.064 229.614 C 198.064 229.838,199.448 230.331,200.141 230.709 C 202.151 231.805,210.049 231.651,212.185 230.474 C 213.056 229.993,214.046 229.598,214.385 229.596 C 214.723 229.593,215.585 228.989,216.300 228.253 C 219.114 225.356,217.368 218.412,213.822 218.396 C 213.370 218.394,212.100 217.950,211.000 217.409 C 209.791 216.814,208.282 216.420,207.185 216.413 C 206.170 216.406,204.670 216.042,203.785 215.588 C 202.913 215.141,201.076 214.615,199.702 214.418 C 198.232 214.208,196.769 213.719,196.148 213.230 C 195.567 212.774,194.801 212.397,194.446 212.393 C 192.905 212.375,187.937 208.152,187.398 206.400 C 187.228 205.850,186.755 204.971,186.345 204.446 C 185.107 202.861,185.472 194.000,186.776 194.000 C 186.939 194.000,187.286 193.291,187.545 192.424 C 188.107 190.548,193.065 185.781,194.865 185.386 C 195.489 185.249,196.000 184.993,196.000 184.817 C 196.000 184.282,198.025 183.687,201.600 183.174 C 203.470 182.905,205.360 182.538,205.800 182.358 C 206.240 182.178,206.960 182.127,207.400 182.244 C 207.840 182.361,210.321 182.781,212.914 183.179 M331.000 182.992 C 332.540 183.326,334.160 183.603,334.600 183.606 C 335.040 183.609,335.850 183.874,336.400 184.195 C 336.950 184.516,338.030 185.072,338.800 185.431 C 339.570 185.790,340.506 186.380,340.881 186.742 C 341.255 187.104,341.795 187.616,342.081 187.881 C 342.366 188.145,342.816 188.595,343.081 188.881 C 343.345 189.166,343.795 189.618,344.081 189.884 C 345.843 191.528,348.066 195.205,348.625 197.400 C 348.905 198.500,349.411 200.120,349.750 201.000 C 350.712 203.504,350.642 210.975,349.647 211.900 C 347.254 214.126,348.429 214.000,330.137 214.000 C 310.413 214.000,309.744 214.132,311.624 217.645 C 311.857 218.081,312.209 219.425,312.405 220.633 C 312.775 222.902,313.596 224.284,316.000 226.682 C 318.383 229.059,318.683 229.259,320.461 229.658 C 321.411 229.872,322.525 230.351,322.937 230.723 C 324.032 231.714,332.146 231.708,333.605 230.716 C 334.158 230.340,335.541 229.833,336.679 229.589 C 337.817 229.345,338.954 228.897,339.206 228.593 C 339.458 228.289,340.325 227.823,341.132 227.557 C 341.939 227.291,343.065 226.730,343.634 226.311 C 344.996 225.305,347.920 225.456,348.559 226.565 C 348.802 226.986,349.300 227.645,349.666 228.031 C 350.450 228.856,350.110 231.147,349.046 232.211 C 348.691 232.566,348.400 233.092,348.400 233.380 C 348.400 233.668,347.873 234.121,347.229 234.388 C 346.585 234.655,345.962 235.122,345.845 235.427 C 345.728 235.731,344.815 236.186,343.816 236.438 C 342.817 236.689,342.000 237.032,342.000 237.199 C 342.000 237.623,340.122 238.302,338.086 238.613 C 337.144 238.757,335.794 239.173,335.086 239.537 C 333.143 240.539,321.627 240.511,320.513 239.502 C 320.089 239.118,318.855 238.690,317.771 238.550 C 315.947 238.316,313.173 236.935,311.500 235.430 C 311.115 235.083,310.673 234.800,310.517 234.800 C 310.133 234.800,307.200 231.914,307.200 231.537 C 307.200 231.372,306.795 230.801,306.300 230.270 C 304.330 228.154,303.653 227.151,303.392 225.962 C 303.241 225.278,302.777 224.377,302.359 223.959 C 301.895 223.495,301.592 222.617,301.579 221.700 C 301.567 220.875,301.286 218.850,300.953 217.200 C 299.973 212.336,299.825 209.020,300.513 207.301 C 300.844 206.473,301.248 204.536,301.411 202.998 C 301.728 199.986,301.848 199.636,303.606 196.600 C 304.243 195.500,305.042 194.021,305.382 193.314 C 305.721 192.607,306.359 191.836,306.799 191.600 C 307.240 191.365,307.600 190.903,307.600 190.573 C 307.600 190.244,307.915 189.857,308.300 189.712 C 308.685 189.567,309.467 188.988,310.038 188.425 C 311.926 186.561,313.259 185.600,313.956 185.600 C 314.335 185.600,315.227 185.170,315.939 184.645 C 316.809 184.003,318.049 183.600,319.717 183.416 C 321.083 183.266,323.100 182.891,324.200 182.584 C 326.292 181.999,326.478 182.010,331.000 182.992 M284.920 183.195 C 285.317 183.198,286.261 183.875,287.018 184.700 L 288.396 186.200 288.398 211.516 L 288.400 236.832 286.700 238.411 C 285.191 239.812,284.775 239.990,283.000 239.990 C 281.225 239.990,280.809 239.812,279.300 238.411 L 277.600 236.832 277.600 211.738 L 277.600 186.643 278.659 185.114 C 279.265 184.241,280.165 183.488,280.759 183.358 C 281.332 183.232,281.980 183.066,282.200 182.987 C 282.420 182.909,282.960 182.922,283.400 183.017 C 283.840 183.112,284.524 183.192,284.920 183.195 M370.718 183.866 C 371.847 184.574,372.391 185.930,372.428 188.126 C 372.458 189.911,373.116 192.142,373.172 190.647 C 373.203 189.827,375.764 187.200,376.532 187.200 C 376.794 187.200,377.232 186.840,377.507 186.400 C 377.782 185.960,378.251 185.600,378.549 185.600 C 378.848 185.600,379.572 185.222,380.159 184.760 C 381.991 183.320,390.083 182.505,393.275 183.440 C 394.074 183.674,394.976 186.122,394.861 187.745 C 394.641 190.863,392.339 192.245,386.910 192.518 C 383.939 192.667,382.648 192.895,382.192 193.351 C 381.846 193.696,380.852 194.171,379.982 194.405 C 379.040 194.658,378.400 195.071,378.400 195.425 C 378.400 195.752,377.950 196.191,377.400 196.400 C 376.850 196.609,376.400 197.048,376.400 197.376 C 376.400 197.704,376.063 198.152,375.651 198.373 C 375.223 198.602,374.696 199.594,374.421 200.687 C 374.156 201.739,373.638 202.934,373.270 203.342 C 372.670 204.005,372.587 205.842,372.473 220.850 L 372.345 237.618 371.273 238.304 C 370.683 238.681,369.962 239.217,369.671 239.495 C 368.206 240.895,364.351 239.510,362.820 237.033 C 362.017 235.733,362.000 235.208,362.000 211.289 L 362.000 186.872 363.079 185.224 C 363.726 184.236,364.567 183.486,365.179 183.353 C 365.741 183.230,366.380 183.070,366.600 182.997 C 367.321 182.759,369.780 183.277,370.718 183.866 M94.400 184.578 C 94.730 184.847,95.540 185.284,96.200 185.547 C 100.320 187.190,102.081 197.445,99.362 203.953 C 99.041 204.721,98.605 207.023,98.393 209.069 C 98.152 211.393,97.705 213.353,97.204 214.289 C 96.762 215.114,96.400 216.015,96.400 216.293 C 96.400 217.678,93.355 220.011,90.269 220.991 L 87.157 221.978 85.684 221.189 C 84.874 220.755,83.963 220.400,83.659 220.400 C 80.101 220.400,76.960 212.443,78.594 207.571 C 78.921 206.597,79.441 203.593,79.750 200.895 C 80.058 198.197,80.506 195.755,80.743 195.468 C 80.981 195.182,81.294 193.937,81.440 192.701 C 81.706 190.439,83.785 186.716,85.200 185.967 C 86.046 185.519,89.282 184.091,90.000 183.848 C 90.891 183.547,93.711 184.015,94.400 184.578 M21.872 185.018 C 26.596 187.530,29.275 193.722,27.264 197.480 C 27.015 197.945,26.623 200.097,26.391 202.263 C 26.160 204.428,25.711 207.100,25.393 208.200 C 25.075 209.300,24.622 211.330,24.388 212.711 C 23.780 216.288,20.599 220.394,18.429 220.402 C 18.083 220.404,17.284 220.674,16.654 221.002 C 15.381 221.667,13.563 221.788,12.980 221.248 C 12.771 221.055,11.964 220.694,11.186 220.446 C 9.915 220.040,8.760 219.126,6.721 216.911 C 5.065 215.111,4.988 206.568,6.587 202.036 C 6.901 201.147,7.356 198.618,7.598 196.416 C 8.669 186.686,15.201 181.471,21.872 185.018 M325.110 191.024 C 324.987 191.147,323.544 191.575,321.903 191.975 C 319.027 192.676,314.400 196.005,314.400 197.372 C 314.400 197.579,314.035 198.137,313.589 198.611 C 313.136 199.094,312.621 200.427,312.421 201.637 C 312.225 202.827,311.945 204.101,311.801 204.469 C 311.264 205.836,312.783 206.000,325.955 206.000 C 339.600 206.000,340.958 205.837,340.593 204.239 C 340.487 203.778,340.148 202.280,339.838 200.912 C 339.529 199.543,338.899 197.944,338.438 197.358 C 337.977 196.772,337.600 196.104,337.600 195.874 C 337.600 194.781,334.590 192.757,332.037 192.134 C 330.587 191.780,329.229 191.335,329.020 191.145 C 328.601 190.765,325.466 190.668,325.110 191.024 M147.949 214.395 C 144.089 214.619,143.116 214.808,142.230 215.505 C 141.643 215.967,140.676 216.453,140.081 216.585 C 138.293 216.983,135.848 223.365,137.171 224.182 C 137.375 224.308,137.756 225.084,138.019 225.906 C 138.542 227.542,140.244 229.600,141.075 229.600 C 141.364 229.600,142.005 230.005,142.500 230.500 C 143.855 231.855,151.242 231.855,152.964 230.499 C 153.593 230.005,154.314 229.600,154.566 229.600 C 155.261 229.600,159.600 225.068,159.600 224.342 C 159.600 223.993,159.985 223.218,160.456 222.620 C 161.372 221.456,161.947 217.037,161.444 215.032 L 161.185 214.000 156.892 214.062 C 154.532 214.097,150.507 214.246,147.949 214.395 " stroke="none" fill="#0c2c44" fill-rule="evenodd"></path><path id="path1" d="M280.805 161.830 C 275.876 163.819,277.591 170.915,283.000 170.915 C 288.469 170.915,290.180 163.853,285.200 161.835 L 283.000 160.944 280.805 161.830 M245.382 169.382 C 244.422 170.342,244.400 170.506,244.400 176.693 C 244.400 184.869,244.534 184.653,239.299 184.864 C 230.520 185.216,230.420 191.200,239.193 191.200 C 244.662 191.200,244.164 189.437,244.400 209.619 C 244.584 225.331,244.658 226.781,245.317 227.509 C 245.712 227.944,246.135 228.924,246.259 229.685 C 246.525 231.323,249.684 234.908,251.683 235.841 C 252.408 236.179,253.469 236.710,254.042 237.022 C 254.626 237.339,256.914 237.705,259.242 237.853 C 261.529 237.999,263.755 238.245,264.188 238.400 C 265.467 238.859,268.684 237.320,268.909 236.142 C 269.312 234.035,267.167 232.723,262.811 232.411 C 259.632 232.183,258.735 231.962,257.400 231.077 C 255.532 229.839,253.602 227.973,253.598 227.400 C 253.596 227.180,253.334 226.500,253.016 225.890 C 251.860 223.674,251.600 220.134,251.600 206.616 C 251.600 189.596,250.855 191.200,258.763 191.200 C 264.917 191.200,266.942 190.830,267.608 189.584 C 268.214 188.453,268.073 186.983,267.300 186.362 C 265.527 184.938,264.777 184.800,258.828 184.800 C 251.134 184.800,251.600 185.346,251.600 176.340 C 251.600 168.569,251.531 168.400,248.353 168.400 C 246.774 168.400,246.161 168.603,245.382 169.382 M145.600 184.418 C 142.476 184.627,140.994 184.917,139.815 185.549 C 138.944 186.017,137.843 186.400,137.369 186.400 C 136.896 186.400,136.079 186.731,135.554 187.136 C 135.029 187.541,134.035 188.064,133.345 188.299 C 129.749 189.524,127.894 193.639,130.192 195.294 C 131.037 195.903,133.469 195.607,134.193 194.808 C 134.587 194.372,135.517 193.902,136.258 193.763 C 137.000 193.624,138.044 193.166,138.578 192.746 C 139.112 192.326,140.550 191.797,141.774 191.571 C 142.998 191.345,144.652 190.887,145.450 190.553 C 147.518 189.689,153.882 189.665,155.430 190.515 C 156.074 190.868,157.230 191.444,158.000 191.795 C 161.236 193.271,162.706 196.744,162.771 203.067 C 162.823 208.162,163.151 208.015,150.955 208.386 C 144.767 208.574,141.028 208.845,140.683 209.131 C 140.386 209.378,139.025 209.866,137.659 210.216 C 134.018 211.149,130.839 213.338,128.961 216.203 C 127.620 218.250,127.785 228.180,129.183 229.516 C 129.576 229.892,130.173 230.740,130.509 231.400 C 131.250 232.859,133.420 234.882,135.249 235.819 C 135.992 236.200,136.706 236.675,136.836 236.876 C 136.966 237.076,138.615 237.490,140.502 237.795 C 142.388 238.100,144.297 238.579,144.745 238.858 C 145.383 239.257,145.972 239.267,147.479 238.904 C 148.536 238.650,150.617 238.161,152.104 237.818 C 153.590 237.474,155.154 236.880,155.579 236.496 C 156.004 236.113,157.000 235.260,157.792 234.600 C 158.585 233.940,159.506 232.894,159.839 232.276 C 160.877 230.351,162.563 230.886,162.728 233.192 C 162.798 234.178,163.061 235.232,163.312 235.535 C 163.563 235.838,163.961 236.471,164.196 236.943 C 165.067 238.689,169.205 238.177,170.197 236.200 C 171.279 234.044,171.648 207.599,170.654 203.443 C 170.332 202.099,169.953 199.692,169.810 198.093 C 169.438 193.927,168.012 191.325,163.893 187.300 C 163.386 186.805,162.750 186.400,162.479 186.400 C 162.207 186.400,161.134 185.969,160.093 185.442 C 157.876 184.320,152.624 183.949,145.600 184.418 M202.547 184.368 C 200.758 184.509,199.032 184.841,198.713 185.107 C 198.393 185.372,197.394 185.849,196.493 186.167 C 194.683 186.806,194.208 187.170,190.880 190.466 C 188.701 192.623,188.547 192.912,187.644 196.508 L 186.696 200.284 187.782 203.545 C 188.766 206.502,190.574 209.200,191.571 209.200 C 191.741 209.200,192.672 209.737,193.640 210.393 C 194.608 211.049,195.677 211.589,196.015 211.593 C 196.354 211.597,197.344 211.973,198.215 212.428 C 199.087 212.883,200.960 213.428,202.377 213.637 C 203.795 213.847,205.491 214.286,206.145 214.612 C 206.800 214.939,208.471 215.388,209.858 215.609 C 215.022 216.434,218.021 218.697,219.038 222.536 C 219.814 225.464,217.768 230.400,215.779 230.400 C 215.520 230.400,214.793 230.805,214.164 231.300 C 212.627 232.508,199.049 232.705,197.742 231.537 C 197.334 231.173,196.190 230.661,195.200 230.400 C 194.210 230.139,193.130 229.697,192.800 229.417 C 190.892 227.798,186.400 226.243,186.400 227.200 C 186.400 227.420,186.064 227.936,185.654 228.346 C 184.927 229.073,184.930 229.142,185.784 231.162 C 186.640 233.188,187.300 233.767,190.400 235.213 C 190.950 235.470,192.300 236.097,193.400 236.607 C 194.506 237.120,196.652 237.657,198.200 237.808 C 199.740 237.959,201.523 238.333,202.161 238.641 C 203.544 239.306,208.504 239.387,209.670 238.763 C 210.119 238.522,212.003 238.080,213.855 237.780 C 215.707 237.480,217.472 236.985,217.777 236.680 C 218.082 236.375,218.932 235.881,219.666 235.583 C 220.400 235.284,221.235 234.716,221.523 234.320 C 221.810 233.924,222.301 233.600,222.612 233.600 C 222.924 233.600,223.450 233.076,223.781 232.436 C 224.112 231.796,224.530 231.211,224.709 231.136 C 224.889 231.061,225.546 229.417,226.171 227.482 L 227.306 223.965 226.452 221.082 C 225.982 219.497,225.598 217.961,225.599 217.669 C 225.600 217.104,221.166 212.800,220.583 212.800 C 220.464 212.800,219.249 212.281,217.883 211.646 C 216.517 211.011,214.590 210.360,213.600 210.199 C 212.610 210.037,211.322 209.661,210.738 209.362 C 210.155 209.064,208.355 208.617,206.738 208.371 C 205.122 208.124,203.260 207.603,202.600 207.212 C 201.940 206.822,200.923 206.391,200.339 206.254 C 198.339 205.784,196.046 203.953,195.558 202.435 C 195.304 201.646,194.967 200.820,194.810 200.600 C 194.126 199.642,194.130 198.851,194.828 197.375 C 195.238 196.509,195.579 195.575,195.586 195.300 C 195.602 194.722,198.711 191.600,199.270 191.600 C 199.476 191.600,200.489 191.196,201.522 190.702 C 204.115 189.463,209.746 189.443,212.400 190.665 C 213.390 191.121,214.713 191.616,215.340 191.765 C 215.967 191.914,216.957 192.359,217.540 192.755 C 221.593 195.507,221.909 195.651,223.658 195.525 L 225.400 195.400 225.521 193.307 C 225.635 191.317,223.863 188.400,222.539 188.400 C 222.381 188.400,221.880 188.063,221.426 187.650 C 220.972 187.238,219.657 186.594,218.505 186.220 C 217.352 185.845,216.313 185.383,216.195 185.193 C 215.749 184.471,207.540 183.975,202.547 184.368 M322.200 184.386 C 319.947 184.571,318.586 184.907,317.600 185.523 C 316.830 186.004,315.930 186.401,315.600 186.406 C 314.785 186.418,311.712 188.488,310.000 190.179 C 307.463 192.684,306.890 193.410,306.262 194.913 C 305.920 195.731,305.459 196.400,305.236 196.400 C 305.013 196.400,304.629 197.165,304.383 198.100 C 304.136 199.035,303.660 200.229,303.324 200.753 C 301.661 203.344,301.793 218.985,303.510 222.800 C 305.922 228.161,306.341 228.810,309.095 231.457 C 312.335 234.570,312.806 234.940,314.351 235.580 C 315.076 235.880,315.906 236.363,316.196 236.653 C 316.486 236.943,318.046 237.371,319.662 237.603 C 321.278 237.834,323.905 238.316,325.499 238.672 C 328.182 239.271,328.586 239.270,330.899 238.658 C 332.275 238.294,334.741 237.813,336.379 237.588 C 338.018 237.364,339.638 236.933,339.979 236.630 C 340.321 236.327,341.230 235.908,342.000 235.698 C 342.770 235.488,344.081 234.853,344.913 234.287 C 345.745 233.721,346.618 233.194,346.853 233.116 C 347.088 233.037,347.503 232.094,347.776 231.020 C 348.592 227.804,347.128 225.871,344.989 227.343 C 344.555 227.642,343.485 228.119,342.611 228.403 C 341.737 228.688,340.784 229.159,340.493 229.450 C 340.202 229.741,339.207 230.180,338.282 230.427 C 337.357 230.673,336.266 231.173,335.859 231.537 C 335.253 232.079,333.996 232.225,328.975 232.336 L 322.832 232.471 319.772 230.999 C 315.235 228.817,312.126 225.481,311.390 222.006 C 311.228 221.239,310.804 220.167,310.448 219.623 C 309.620 218.361,309.553 213.620,310.349 212.661 C 310.845 212.064,312.641 212.000,328.875 212.000 C 339.837 212.000,347.138 211.847,347.584 211.608 C 349.144 210.774,349.684 206.674,348.630 203.684 C 348.316 202.794,347.934 201.197,347.780 200.133 C 347.506 198.233,345.557 193.577,344.543 192.400 C 343.875 191.625,340.502 188.285,339.594 187.499 C 339.208 187.165,338.197 186.669,337.346 186.396 C 336.496 186.122,335.483 185.622,335.096 185.284 C 334.655 184.899,333.089 184.555,330.896 184.363 C 326.971 184.019,326.666 184.020,322.200 184.386 M279.940 185.900 L 279.000 187.400 278.887 211.000 C 278.800 229.160,278.888 234.830,279.270 235.600 C 280.288 237.653,280.827 238.000,283.000 238.000 C 285.135 238.000,285.567 237.732,286.700 235.705 C 287.261 234.702,287.457 186.802,286.900 186.797 C 286.735 186.796,286.293 186.256,285.919 185.597 C 284.794 183.622,281.254 183.801,279.940 185.900 M364.749 185.061 C 363.707 186.317,363.747 236.147,364.791 237.191 C 366.371 238.771,370.810 237.907,371.344 235.916 C 371.479 235.412,371.592 227.814,371.595 219.032 L 371.600 203.063 372.874 200.448 C 374.154 197.820,377.327 194.223,379.200 193.274 C 379.750 192.996,380.622 192.525,381.138 192.228 C 381.654 191.931,383.600 191.561,385.464 191.406 C 392.076 190.855,395.611 187.905,393.174 184.969 C 392.399 184.035,384.994 184.182,383.155 185.168 C 382.366 185.591,380.974 186.138,380.061 186.384 C 379.147 186.630,378.400 186.980,378.400 187.162 C 378.400 187.344,377.562 188.146,376.538 188.943 C 375.515 189.741,374.480 190.782,374.238 191.258 C 372.810 194.073,371.200 193.214,371.200 189.636 C 371.200 188.100,371.009 186.729,370.775 186.585 C 370.542 186.440,370.186 185.890,369.985 185.361 C 369.522 184.142,365.694 183.923,364.749 185.061 M333.834 191.017 C 336.448 192.517,337.281 193.253,339.205 195.755 C 339.862 196.610,340.400 197.579,340.400 197.908 C 340.400 198.237,340.744 199.067,341.165 199.753 C 342.852 202.504,342.567 207.247,340.683 207.752 C 339.480 208.075,313.624 208.065,312.006 207.741 C 310.444 207.429,309.502 205.663,310.027 204.032 C 311.032 200.914,312.364 197.594,312.848 197.001 C 316.084 193.033,318.236 191.419,322.400 189.837 C 324.300 189.115,331.884 189.898,333.834 191.017 M162.057 212.857 C 163.373 214.173,162.941 221.777,161.426 223.963 C 160.862 224.777,160.400 225.622,160.400 225.841 C 160.400 226.526,157.329 229.471,155.009 231.011 L 152.787 232.486 147.864 232.528 C 139.744 232.596,135.800 229.285,135.800 222.400 C 135.800 216.645,138.527 214.270,146.160 213.376 C 148.602 213.090,151.050 212.675,151.600 212.453 C 153.682 211.615,161.101 211.901,162.057 212.857 " stroke="none" fill="#e7e9f1" fill-rule="evenodd"></path><path id="path2" d="M66.400 168.042 C 63.100 169.034,60.674 173.244,60.201 178.800 C 60.042 180.670,59.665 182.800,59.363 183.533 C 59.060 184.266,58.541 187.146,58.209 189.933 C 57.877 192.720,57.342 195.720,57.020 196.600 C 56.698 197.480,56.421 199.100,56.404 200.200 C 56.375 202.002,56.130 203.341,54.866 208.600 C 54.655 209.480,54.357 211.725,54.206 213.588 C 54.054 215.451,53.670 217.478,53.353 218.091 C 52.623 219.503,51.777 229.169,52.162 231.706 C 52.400 233.274,52.806 233.968,54.445 235.606 L 56.438 237.600 59.981 237.600 C 63.945 237.600,66.316 236.303,67.547 233.463 C 67.848 232.768,68.360 231.573,68.684 230.808 C 69.009 230.042,69.452 227.612,69.668 225.408 C 69.885 223.203,70.305 220.903,70.603 220.295 C 70.900 219.687,71.257 218.157,71.395 216.895 C 71.919 212.115,72.496 208.575,72.863 207.886 C 73.072 207.493,73.423 205.513,73.642 203.486 C 73.862 201.458,74.383 198.540,74.800 197.000 C 75.217 195.460,75.673 192.850,75.813 191.200 C 75.953 189.550,76.412 187.167,76.832 185.903 C 77.949 182.546,78.353 173.820,77.466 172.190 C 75.371 168.340,70.938 166.678,66.400 168.042 M40.480 177.834 C 38.551 178.715,36.444 180.520,36.413 181.319 C 36.406 181.495,36.033 182.395,35.584 183.319 C 35.088 184.340,34.618 186.491,34.384 188.800 C 33.997 192.635,33.524 195.153,33.045 195.927 C 32.902 196.159,32.600 198.292,32.375 200.667 C 32.150 203.042,31.714 205.492,31.405 206.111 C 31.096 206.730,30.637 209.433,30.385 212.118 C 30.133 214.803,29.674 217.523,29.364 218.161 C 28.632 219.668,28.648 220.976,29.404 221.603 C 29.736 221.878,30.114 222.770,30.244 223.584 C 31.342 230.449,44.638 229.015,45.809 221.905 C 45.963 220.967,46.345 219.580,46.657 218.821 C 46.969 218.063,47.402 215.633,47.619 213.421 C 47.836 211.210,48.275 208.770,48.596 208.000 C 48.916 207.230,49.454 204.440,49.791 201.800 C 50.127 199.160,50.664 196.280,50.984 195.400 C 51.303 194.520,51.573 193.068,51.582 192.173 C 51.592 191.279,51.796 189.486,52.036 188.190 C 53.489 180.329,47.253 174.740,40.480 177.834 M89.830 185.151 C 89.711 185.344,88.846 185.702,87.907 185.946 C 85.027 186.696,82.675 189.855,82.209 193.600 C 82.058 194.810,81.602 197.240,81.196 199.000 C 80.789 200.760,80.336 203.460,80.189 205.000 C 80.042 206.540,79.757 208.572,79.555 209.515 C 78.293 215.437,82.102 220.132,88.103 220.053 C 93.815 219.977,96.995 215.563,97.793 206.600 C 97.931 205.060,98.377 202.450,98.786 200.800 C 99.480 197.996,99.804 194.649,99.661 191.766 C 99.489 188.296,91.294 182.782,89.830 185.151 M15.596 185.926 C 12.907 186.628,10.410 188.563,10.391 189.959 C 10.386 190.312,10.033 191.369,9.607 192.309 C 9.110 193.403,8.689 195.663,8.434 198.593 C 8.211 201.157,7.767 203.691,7.423 204.356 C 6.716 205.723,6.166 211.625,6.553 213.689 C 7.013 216.142,10.550 219.464,13.019 219.762 C 16.647 220.200,21.600 218.348,21.600 216.554 C 21.600 216.309,21.984 215.619,22.454 215.022 C 23.093 214.210,23.400 213.023,23.672 210.314 C 23.871 208.321,24.298 206.061,24.619 205.292 C 25.749 202.588,26.412 192.830,25.646 190.162 C 25.130 188.361,23.381 186.819,20.877 185.958 C 18.304 185.072,18.853 185.076,15.596 185.926 " stroke="none" fill="#1dc7f9" fill-rule="evenodd"></path><path id="path3" d="M279.749 161.427 C 276.619 163.316,276.441 168.316,279.423 170.590 C 281.228 171.967,284.660 172.021,286.456 170.700 C 292.537 166.228,286.234 157.515,279.749 161.427 M287.743 164.178 C 288.678 168.131,286.718 170.915,283.000 170.915 C 277.591 170.915,275.876 163.819,280.805 161.830 L 283.000 160.944 285.200 161.835 C 287.140 162.622,287.440 162.898,287.743 164.178 M69.300 167.476 C 69.685 167.576,70.315 167.576,70.700 167.476 C 71.085 167.375,70.770 167.293,70.000 167.293 C 69.230 167.293,68.915 167.375,69.300 167.476 M245.760 168.148 C 244.002 168.946,243.882 169.442,243.690 176.685 C 243.484 184.469,243.727 184.118,238.385 184.333 C 234.761 184.479,234.389 184.571,233.484 185.545 C 230.438 188.828,232.553 191.435,238.459 191.676 C 244.001 191.902,243.477 190.110,243.677 209.510 L 243.848 226.200 244.924 228.439 C 245.516 229.670,246.000 230.820,246.000 230.995 C 246.000 231.646,249.762 235.690,250.763 236.114 C 251.333 236.357,252.089 236.794,252.442 237.086 C 253.079 237.614,259.382 238.913,263.600 239.384 C 268.442 239.926,271.401 236.064,268.258 233.305 C 267.066 232.258,266.536 232.100,263.488 231.885 C 253.698 231.194,252.403 228.258,252.401 206.749 C 252.400 190.051,251.442 191.845,260.449 191.666 L 267.176 191.533 267.988 190.219 C 269.053 188.497,269.011 187.269,267.837 185.800 L 266.878 184.600 260.300 184.400 C 251.825 184.142,252.497 184.836,252.333 176.192 C 252.225 170.540,252.082 169.109,251.576 168.604 C 250.692 167.721,247.287 167.454,245.760 168.148 M250.971 169.029 C 251.493 169.550,251.600 170.798,251.600 176.340 C 251.600 185.346,251.134 184.800,258.828 184.800 C 264.777 184.800,265.527 184.938,267.300 186.362 C 268.073 186.983,268.214 188.453,267.608 189.584 C 266.942 190.830,264.917 191.200,258.763 191.200 C 250.855 191.200,251.600 189.596,251.600 206.616 C 251.600 220.134,251.860 223.674,253.016 225.890 C 253.334 226.500,253.596 227.180,253.598 227.400 C 253.602 227.973,255.532 229.839,257.400 231.077 C 258.735 231.962,259.632 232.183,262.811 232.411 C 267.167 232.723,269.312 234.035,268.909 236.142 C 268.684 237.320,265.467 238.859,264.188 238.400 C 263.755 238.245,261.529 237.999,259.242 237.853 C 256.914 237.705,254.626 237.339,254.042 237.022 C 253.469 236.710,252.408 236.179,251.683 235.841 C 249.684 234.908,246.525 231.323,246.259 229.685 C 246.135 228.924,245.712 227.944,245.317 227.509 C 244.658 226.781,244.584 225.331,244.400 209.619 C 244.164 189.437,244.662 191.200,239.193 191.200 C 230.420 191.200,230.520 185.216,239.299 184.864 C 244.534 184.653,244.400 184.869,244.400 176.693 C 244.400 170.506,244.422 170.342,245.382 169.382 C 246.574 168.190,249.921 167.979,250.971 169.029 M78.109 176.000 C 78.109 176.990,78.187 177.395,78.282 176.900 C 78.378 176.405,78.378 175.595,78.282 175.100 C 78.187 174.605,78.109 175.010,78.109 176.000 M150.200 183.195 C 149.760 183.356,147.600 183.616,145.400 183.772 C 142.875 183.952,140.754 184.342,139.649 184.829 C 138.686 185.253,137.696 185.601,137.449 185.601 C 136.436 185.604,131.316 188.515,129.910 189.887 C 126.015 193.692,130.037 198.471,134.555 195.405 C 135.361 194.858,136.511 194.295,137.110 194.154 C 137.710 194.013,138.754 193.565,139.431 193.158 C 140.109 192.752,143.116 191.945,146.115 191.366 L 151.567 190.312 154.484 191.188 C 159.723 192.762,161.401 194.802,162.115 200.465 C 162.939 206.990,162.611 207.203,151.009 207.669 C 142.556 208.008,141.081 208.196,137.400 209.408 C 125.978 213.167,123.133 225.703,131.800 234.079 C 136.154 238.287,146.528 240.967,150.886 239.010 C 151.609 238.686,152.956 238.232,153.879 238.001 C 155.111 237.692,156.309 236.853,158.378 234.848 C 161.391 231.930,161.697 231.897,162.155 234.442 C 163.048 239.403,168.816 240.623,171.041 236.321 C 172.064 234.343,171.839 204.651,170.756 198.800 C 169.052 189.587,164.006 184.466,155.951 183.777 C 154.108 183.620,152.240 183.358,151.800 183.197 C 151.360 183.035,150.640 183.034,150.200 183.195 M202.857 183.656 C 191.610 184.833,182.913 196.297,187.200 204.296 C 187.640 205.116,188.000 206.003,188.000 206.266 C 188.000 209.227,196.317 213.157,208.600 215.998 C 216.205 217.758,218.200 219.422,218.200 224.006 C 218.200 227.715,217.435 228.833,213.614 230.712 C 210.590 232.198,201.397 232.339,198.400 230.944 C 197.410 230.483,196.060 229.978,195.400 229.822 C 194.740 229.666,193.930 229.311,193.600 229.033 C 189.241 225.367,184.400 225.703,184.400 229.671 C 184.400 231.627,188.379 235.960,190.206 235.993 C 190.429 235.997,191.321 236.380,192.188 236.845 C 200.047 241.057,216.207 239.968,222.123 234.828 C 231.919 226.317,228.198 213.254,214.998 209.816 C 213.784 209.500,212.607 209.128,212.384 208.990 C 212.160 208.852,210.407 208.407,208.488 208.002 C 197.843 205.753,194.164 202.570,195.780 197.009 C 197.169 192.232,204.824 189.088,210.486 190.970 C 211.429 191.283,212.991 191.747,213.958 192.001 C 214.925 192.255,216.185 192.780,216.758 193.169 C 220.219 195.515,221.211 196.016,222.816 196.227 C 225.451 196.575,226.200 195.865,226.200 193.020 C 226.200 186.991,214.778 182.408,202.857 183.656 M321.800 183.769 C 319.600 184.057,317.580 184.582,316.606 185.120 C 315.729 185.604,314.854 186.000,314.662 186.000 C 313.133 186.000,307.213 191.520,305.615 194.435 C 303.139 198.951,302.294 201.201,301.797 204.600 C 301.507 206.580,301.138 208.533,300.977 208.940 C 300.816 209.347,300.886 211.147,301.134 212.940 C 301.382 214.733,301.767 217.593,301.990 219.296 C 302.212 220.998,302.755 223.066,303.197 223.890 C 303.639 224.714,304.000 225.561,304.000 225.773 C 304.000 226.930,307.800 231.592,310.576 233.839 C 318.028 239.874,333.750 241.399,341.266 236.816 C 342.000 236.369,342.851 236.002,343.159 236.001 C 346.865 235.992,350.271 230.079,348.162 227.314 C 346.881 225.635,346.297 225.714,341.419 228.224 C 339.520 229.201,337.785 230.000,337.562 230.000 C 337.339 230.000,336.311 230.403,335.278 230.895 C 331.844 232.531,323.891 232.226,320.000 230.310 C 315.446 228.066,312.973 225.369,311.831 221.399 C 311.515 220.299,311.036 218.673,310.768 217.784 C 310.486 216.852,310.396 215.546,310.555 214.699 L 310.830 213.231 328.915 213.115 L 347.000 213.000 348.324 212.056 L 349.648 211.111 349.508 206.856 C 349.032 192.402,338.680 182.044,325.916 183.249 C 325.632 183.275,323.780 183.509,321.800 183.769 M279.754 185.078 L 278.400 186.556 278.400 211.518 L 278.400 236.479 279.593 237.594 C 281.108 239.009,283.122 239.410,284.927 238.656 C 287.746 237.478,287.600 238.965,287.600 211.402 L 287.600 186.582 286.371 185.091 C 284.566 182.902,281.753 182.896,279.754 185.078 M365.360 183.990 C 362.781 185.033,362.800 184.828,362.800 211.015 C 362.800 237.937,362.746 237.411,365.620 238.561 C 367.478 239.305,369.053 239.066,370.641 237.800 L 371.800 236.877 372.009 220.138 L 372.218 203.400 373.478 200.800 C 376.087 195.416,380.862 192.232,387.008 191.778 C 392.814 191.349,395.154 189.424,394.144 185.905 C 393.155 182.457,382.046 183.222,377.674 187.040 C 377.303 187.364,376.409 188.094,375.686 188.662 C 374.963 189.230,374.092 190.236,373.750 190.897 C 372.861 192.617,372.079 191.670,371.744 188.468 C 371.316 184.370,368.795 182.602,365.360 183.990 M160.093 185.442 C 161.134 185.969,162.207 186.400,162.479 186.400 C 162.750 186.400,163.386 186.805,163.893 187.300 C 168.012 191.325,169.438 193.927,169.810 198.093 C 169.953 199.692,170.332 202.099,170.654 203.443 C 171.648 207.599,171.279 234.044,170.197 236.200 C 169.205 238.177,165.067 238.689,164.196 236.943 C 163.961 236.471,163.563 235.838,163.312 235.535 C 163.061 235.232,162.798 234.178,162.728 233.192 C 162.563 230.886,160.877 230.351,159.839 232.276 C 159.506 232.894,158.585 233.940,157.792 234.600 C 157.000 235.260,156.004 236.113,155.579 236.496 C 155.154 236.880,153.590 237.474,152.104 237.818 C 150.617 238.161,148.536 238.650,147.479 238.904 C 145.972 239.267,145.383 239.257,144.745 238.858 C 144.297 238.579,142.388 238.100,140.502 237.795 C 138.615 237.490,136.966 237.076,136.836 236.876 C 136.706 236.675,135.992 236.200,135.249 235.819 C 133.420 234.882,131.250 232.859,130.509 231.400 C 130.173 230.740,129.576 229.892,129.183 229.516 C 127.785 228.180,127.620 218.250,128.961 216.203 C 130.839 213.338,134.018 211.149,137.659 210.216 C 139.025 209.866,140.386 209.378,140.683 209.131 C 141.028 208.845,144.767 208.574,150.955 208.386 C 163.151 208.015,162.823 208.162,162.771 203.067 C 162.706 196.744,161.236 193.271,158.000 191.795 C 157.230 191.444,156.074 190.868,155.430 190.515 C 153.882 189.665,147.518 189.689,145.450 190.553 C 144.652 190.887,142.998 191.345,141.774 191.571 C 140.550 191.797,139.112 192.326,138.578 192.746 C 138.044 193.166,137.000 193.624,136.258 193.763 C 135.517 193.902,134.587 194.372,134.193 194.808 C 133.469 195.607,131.037 195.903,130.192 195.294 C 127.894 193.639,129.749 189.524,133.345 188.299 C 134.035 188.064,135.029 187.541,135.554 187.136 C 136.079 186.731,136.896 186.400,137.369 186.400 C 137.843 186.400,138.944 186.017,139.815 185.549 C 143.075 183.800,156.706 183.728,160.093 185.442 M214.291 184.640 C 215.221 184.753,216.078 185.002,216.195 185.193 C 216.313 185.383,217.352 185.845,218.505 186.220 C 219.657 186.594,220.972 187.238,221.426 187.650 C 221.880 188.063,222.381 188.400,222.539 188.400 C 223.863 188.400,225.635 191.317,225.521 193.307 L 225.400 195.400 223.658 195.525 C 221.909 195.651,221.593 195.507,217.540 192.755 C 216.957 192.359,215.967 191.914,215.340 191.765 C 214.713 191.616,213.390 191.121,212.400 190.665 C 209.746 189.443,204.115 189.463,201.522 190.702 C 200.489 191.196,199.476 191.600,199.270 191.600 C 198.711 191.600,195.602 194.722,195.586 195.300 C 195.579 195.575,195.238 196.509,194.828 197.375 C 194.130 198.851,194.126 199.642,194.810 200.600 C 194.967 200.820,195.304 201.646,195.558 202.435 C 196.046 203.953,198.339 205.784,200.339 206.254 C 200.923 206.391,201.940 206.822,202.600 207.212 C 203.260 207.603,205.122 208.124,206.738 208.371 C 208.355 208.617,210.155 209.064,210.738 209.362 C 211.322 209.661,212.610 210.037,213.600 210.199 C 214.590 210.360,216.517 211.011,217.883 211.646 C 219.249 212.281,220.464 212.800,220.583 212.800 C 221.166 212.800,225.600 217.104,225.599 217.669 C 225.598 217.961,225.982 219.497,226.452 221.082 L 227.306 223.965 226.171 227.482 C 225.546 229.417,224.889 231.061,224.709 231.136 C 224.530 231.211,224.112 231.796,223.781 232.436 C 223.450 233.076,222.924 233.600,222.612 233.600 C 222.301 233.600,221.810 233.924,221.523 234.320 C 221.235 234.716,220.400 235.284,219.666 235.583 C 218.932 235.881,218.082 236.375,217.777 236.680 C 217.472 236.985,215.707 237.480,213.855 237.780 C 212.003 238.080,210.119 238.522,209.670 238.763 C 208.504 239.387,203.544 239.306,202.161 238.641 C 201.523 238.333,199.740 237.959,198.200 237.808 C 196.652 237.657,194.506 237.120,193.400 236.607 C 192.300 236.097,190.950 235.470,190.400 235.213 C 187.300 233.767,186.640 233.188,185.784 231.162 C 184.930 229.142,184.927 229.073,185.654 228.346 C 186.064 227.936,186.400 227.420,186.400 227.200 C 186.400 226.243,190.892 227.798,192.800 229.417 C 193.130 229.697,194.210 230.139,195.200 230.400 C 196.190 230.661,197.334 231.173,197.742 231.537 C 199.049 232.705,212.627 232.508,214.164 231.300 C 214.793 230.805,215.520 230.400,215.779 230.400 C 216.577 230.400,218.234 228.294,218.927 226.400 C 220.732 221.463,216.735 216.708,209.858 215.609 C 208.471 215.388,206.800 214.939,206.145 214.612 C 205.491 214.286,203.795 213.847,202.377 213.637 C 200.960 213.428,199.087 212.883,198.215 212.428 C 197.344 211.973,196.354 211.597,196.015 211.593 C 195.677 211.589,194.608 211.049,193.640 210.393 C 192.672 209.737,191.741 209.200,191.571 209.200 C 190.574 209.200,188.766 206.502,187.782 203.545 L 186.696 200.284 187.644 196.508 C 188.547 192.912,188.701 192.623,190.880 190.466 C 194.208 187.170,194.683 186.806,196.493 186.167 C 197.394 185.849,198.393 185.372,198.713 185.107 C 199.801 184.203,208.564 183.941,214.291 184.640 M330.896 184.363 C 333.089 184.555,334.655 184.899,335.096 185.284 C 335.483 185.622,336.496 186.122,337.346 186.396 C 338.197 186.669,339.208 187.165,339.594 187.499 C 340.502 188.285,343.875 191.625,344.543 192.400 C 345.557 193.577,347.506 198.233,347.780 200.133 C 347.934 201.197,348.316 202.794,348.630 203.684 C 349.684 206.674,349.144 210.774,347.584 211.608 C 347.138 211.847,339.837 212.000,328.875 212.000 C 312.641 212.000,310.845 212.064,310.349 212.661 C 309.553 213.620,309.620 218.361,310.448 219.623 C 310.804 220.167,311.228 221.239,311.390 222.006 C 312.126 225.481,315.235 228.817,319.772 230.999 L 322.832 232.471 328.975 232.336 C 333.996 232.225,335.253 232.079,335.859 231.537 C 336.266 231.173,337.357 230.673,338.282 230.427 C 339.207 230.180,340.202 229.741,340.493 229.450 C 340.784 229.159,341.737 228.688,342.611 228.403 C 343.485 228.119,344.555 227.642,344.989 227.343 C 347.128 225.871,348.592 227.804,347.776 231.020 C 347.503 232.094,347.088 233.037,346.853 233.116 C 346.618 233.194,345.745 233.721,344.913 234.287 C 344.081 234.853,342.770 235.488,342.000 235.698 C 341.230 235.908,340.321 236.327,339.979 236.630 C 339.638 236.933,338.018 237.364,336.379 237.588 C 334.741 237.813,332.275 238.294,330.899 238.658 C 328.586 239.270,328.182 239.271,325.499 238.672 C 323.905 238.316,321.278 237.834,319.662 237.603 C 318.046 237.371,316.486 236.943,316.196 236.653 C 315.906 236.363,315.076 235.880,314.351 235.580 C 312.806 234.940,312.335 234.570,309.095 231.457 C 306.341 228.810,305.922 228.161,303.510 222.800 C 301.793 218.985,301.661 203.344,303.324 200.753 C 303.660 200.229,304.136 199.035,304.383 198.100 C 304.629 197.165,305.013 196.400,305.236 196.400 C 305.459 196.400,305.920 195.731,306.262 194.913 C 306.890 193.410,307.463 192.684,310.000 190.179 C 311.712 188.488,314.785 186.418,315.600 186.406 C 315.930 186.401,316.830 186.004,317.600 185.523 C 318.586 184.907,319.947 184.571,322.200 184.386 C 326.666 184.020,326.971 184.019,330.896 184.363 M285.919 185.597 C 286.293 186.256,286.735 186.796,286.900 186.797 C 287.457 186.802,287.261 234.702,286.700 235.705 C 285.567 237.732,285.135 238.000,283.000 238.000 C 280.827 238.000,280.288 237.653,279.270 235.600 C 278.888 234.830,278.800 229.160,278.887 211.000 L 279.000 187.400 279.940 185.900 C 281.254 183.801,284.794 183.622,285.919 185.597 M369.985 185.361 C 370.186 185.890,370.542 186.440,370.775 186.585 C 371.009 186.729,371.200 188.100,371.200 189.636 C 371.200 193.214,372.810 194.073,374.238 191.258 C 374.480 190.782,375.515 189.741,376.538 188.943 C 377.562 188.146,378.400 187.344,378.400 187.162 C 378.400 186.980,379.147 186.630,380.061 186.384 C 380.974 186.138,382.366 185.591,383.155 185.168 C 384.994 184.182,392.399 184.035,393.174 184.969 C 395.611 187.905,392.076 190.855,385.464 191.406 C 383.600 191.561,381.654 191.931,381.138 192.228 C 380.622 192.525,379.750 192.996,379.200 193.274 C 377.327 194.223,374.154 197.820,372.874 200.448 L 371.600 203.063 371.595 219.032 C 371.592 227.814,371.479 235.412,371.344 235.916 C 370.810 237.907,366.371 238.771,364.791 237.191 C 363.747 236.147,363.707 186.317,364.749 185.061 C 365.694 183.923,369.522 184.142,369.985 185.361 M34.093 190.000 C 34.093 190.770,34.175 191.085,34.276 190.700 C 34.376 190.315,34.376 189.685,34.276 189.300 C 34.175 188.915,34.093 189.230,34.093 190.000 M322.400 189.837 C 318.236 191.419,316.084 193.033,312.848 197.001 C 312.364 197.594,311.032 200.914,310.027 204.032 C 309.502 205.663,310.444 207.429,312.006 207.741 C 313.624 208.065,339.480 208.075,340.683 207.752 C 342.567 207.247,342.852 202.504,341.165 199.753 C 340.744 199.067,340.400 198.237,340.400 197.908 C 340.400 197.112,338.361 194.425,336.505 192.773 C 333.720 190.295,325.628 188.611,322.400 189.837 M332.741 191.453 C 336.089 192.694,339.017 195.644,340.033 198.800 C 340.210 199.350,340.627 200.520,340.960 201.400 C 342.999 206.794,342.982 206.800,326.171 206.800 C 309.232 206.800,309.910 206.985,311.255 202.728 C 314.531 192.366,323.090 187.874,332.741 191.453 M26.120 194.000 C 26.120 195.210,26.195 195.705,26.287 195.100 C 26.378 194.495,26.378 193.505,26.287 192.900 C 26.195 192.295,26.120 192.790,26.120 194.000 M99.709 195.600 C 99.709 196.590,99.787 196.995,99.882 196.500 C 99.978 196.005,99.978 195.195,99.882 194.700 C 99.787 194.205,99.709 194.610,99.709 195.600 M151.600 212.453 C 151.050 212.675,148.602 213.090,146.160 213.376 C 138.527 214.270,135.800 216.645,135.800 222.400 C 135.800 229.285,139.744 232.596,147.864 232.528 L 152.787 232.486 155.009 231.011 C 157.329 229.471,160.400 226.526,160.400 225.841 C 160.400 225.622,160.862 224.777,161.426 223.963 C 162.941 221.777,163.373 214.173,162.057 212.857 C 161.101 211.901,153.682 211.615,151.600 212.453 M161.836 214.198 C 162.706 215.526,162.051 221.836,160.870 223.514 C 160.449 224.111,159.985 224.986,159.839 225.458 C 159.530 226.453,156.390 229.372,154.146 230.749 C 151.536 232.351,143.731 232.530,142.010 231.029 C 141.674 230.736,140.836 230.211,140.146 229.862 C 134.806 227.159,135.251 218.087,140.856 215.383 C 145.284 213.247,160.644 212.380,161.836 214.198 M51.714 229.400 C 51.717 230.500,51.795 230.903,51.887 230.295 C 51.979 229.686,51.977 228.786,51.882 228.295 C 51.787 227.803,51.711 228.300,51.714 229.400 M37.300 228.276 C 37.685 228.376,38.315 228.376,38.700 228.276 C 39.085 228.175,38.770 228.093,38.000 228.093 C 37.230 228.093,36.915 228.175,37.300 228.276 M59.305 237.887 C 59.914 237.979,60.814 237.977,61.305 237.882 C 61.797 237.787,61.300 237.711,60.200 237.714 C 59.100 237.717,58.697 237.795,59.305 237.887 " stroke="none" fill="#84949c" fill-rule="evenodd"></path><path id="path4" d="M280.069 160.331 C 279.668 160.732,279.030 161.180,278.651 161.325 C 278.273 161.470,277.705 162.209,277.388 162.967 C 277.071 163.725,276.629 164.458,276.406 164.596 C 275.789 164.978,275.921 167.037,276.600 167.600 C 276.930 167.874,277.200 168.360,277.200 168.680 C 277.200 172.921,287.323 173.623,288.640 169.473 C 288.786 169.013,289.152 168.391,289.453 168.090 C 290.140 167.403,290.166 165.031,289.495 164.329 C 289.218 164.038,288.769 163.300,288.499 162.689 C 288.228 162.078,287.704 161.461,287.334 161.319 C 286.964 161.177,286.332 160.732,285.931 160.331 C 285.400 159.800,284.597 159.600,283.000 159.600 C 281.403 159.600,280.600 159.800,280.069 160.331 M286.176 161.407 C 288.631 162.846,289.661 165.931,288.466 168.265 C 285.989 173.103,278.999 172.798,277.597 167.790 C 276.097 162.431,281.307 158.554,286.176 161.407 M68.000 166.268 C 64.981 167.298,61.200 170.064,61.200 171.242 C 61.200 171.470,60.941 171.916,60.624 172.233 C 60.307 172.550,59.939 173.662,59.806 174.705 C 59.395 177.926,58.832 180.905,58.203 183.187 C 57.871 184.390,57.600 186.286,57.600 187.401 C 57.600 188.516,57.261 190.411,56.846 191.614 C 56.431 192.816,55.883 195.850,55.627 198.356 C 55.372 200.861,54.927 203.381,54.638 203.956 C 54.349 204.530,53.906 207.097,53.653 209.660 C 53.400 212.223,52.929 214.951,52.607 215.721 C 52.285 216.492,51.852 218.923,51.645 221.123 C 51.438 223.324,51.073 225.489,50.834 225.936 C 48.518 230.265,52.796 237.989,57.864 238.628 C 65.438 239.583,69.469 236.060,70.391 227.679 C 70.638 225.437,71.110 222.956,71.440 222.166 C 71.770 221.377,72.195 218.938,72.386 216.748 C 72.576 214.557,72.938 212.515,73.191 212.211 C 73.443 211.907,73.911 209.350,74.230 206.529 C 74.548 203.708,75.069 200.770,75.386 200.000 C 75.703 199.230,76.153 196.727,76.386 194.439 C 76.619 192.150,77.095 189.450,77.445 188.439 C 77.794 187.427,78.220 185.070,78.391 183.200 C 78.563 181.330,78.936 178.970,79.220 177.956 C 80.861 172.091,73.477 164.399,68.000 166.268 M246.255 167.368 C 243.407 168.146,242.800 170.098,242.800 178.486 C 242.800 183.887,243.101 183.586,237.687 183.595 C 234.442 183.600,234.344 183.629,232.987 184.987 C 229.493 188.481,232.000 192.396,237.739 192.405 C 243.328 192.415,242.699 190.589,242.946 207.538 C 243.182 223.696,243.514 228.398,244.497 229.489 C 244.849 229.880,245.256 230.673,245.400 231.252 C 246.039 233.811,251.495 238.065,254.780 238.564 C 255.759 238.713,256.783 239.020,257.056 239.246 C 258.463 240.414,267.140 240.430,267.992 239.266 C 268.106 239.109,268.695 238.667,269.300 238.282 C 272.673 236.135,269.670 231.856,264.543 231.505 C 262.431 231.360,260.770 230.997,259.683 230.442 C 258.775 229.979,257.824 229.600,257.570 229.600 C 256.629 229.600,254.400 226.675,254.386 225.422 C 254.378 224.750,254.115 223.030,253.800 221.600 C 253.371 219.649,253.225 215.742,253.214 205.947 L 253.200 192.893 254.100 192.652 C 254.595 192.519,257.738 192.408,261.084 192.405 C 265.461 192.402,267.283 192.260,267.578 191.900 C 270.511 188.321,270.602 187.720,268.555 185.400 L 267.144 183.800 260.272 183.558 C 256.492 183.425,253.355 183.290,253.300 183.258 C 253.245 183.226,253.186 180.455,253.170 177.100 C 253.123 167.813,251.743 165.870,246.255 167.368 M72.629 167.852 C 75.586 168.829,77.593 171.063,78.155 174.000 C 78.508 175.848,77.617 184.707,76.941 186.070 C 76.649 186.659,76.219 188.909,75.986 191.070 C 75.753 193.232,75.229 196.260,74.821 197.800 C 74.414 199.340,73.952 201.950,73.795 203.600 C 73.638 205.250,73.279 207.320,72.997 208.200 C 72.377 210.131,72.138 211.510,71.621 216.143 C 71.404 218.092,71.038 219.913,70.809 220.189 C 70.579 220.466,70.117 222.911,69.781 225.623 C 69.445 228.335,69.028 230.744,68.854 230.977 C 68.680 231.209,68.228 232.210,67.850 233.200 C 65.198 240.137,53.743 239.264,51.998 231.992 C 51.480 229.834,52.403 219.489,53.255 217.896 C 53.492 217.455,53.931 214.982,54.232 212.401 C 54.532 209.821,54.973 207.198,55.210 206.574 C 55.448 205.949,55.907 203.293,56.232 200.672 C 56.556 198.051,56.983 195.605,57.180 195.237 C 57.377 194.869,57.753 192.685,58.016 190.384 C 58.278 188.083,58.817 185.030,59.213 183.600 C 59.609 182.170,60.043 179.650,60.178 178.000 C 60.323 176.226,60.746 174.382,61.212 173.488 C 61.645 172.656,62.000 171.774,62.000 171.528 C 62.000 168.867,68.695 166.551,72.629 167.852 M251.576 168.604 C 252.082 169.109,252.225 170.540,252.333 176.192 C 252.497 184.836,251.825 184.142,260.300 184.400 L 266.878 184.600 267.837 185.800 C 269.011 187.269,269.053 188.497,267.988 190.219 L 267.176 191.533 260.449 191.666 C 251.442 191.845,252.400 190.051,252.401 206.749 C 252.403 228.258,253.698 231.194,263.488 231.885 C 266.536 232.100,267.066 232.258,268.258 233.305 C 271.401 236.064,268.442 239.926,263.600 239.384 C 259.382 238.913,253.079 237.614,252.442 237.086 C 252.089 236.794,251.333 236.357,250.763 236.114 C 249.762 235.690,246.000 231.646,246.000 230.995 C 246.000 230.820,245.516 229.670,244.924 228.439 L 243.848 226.200 243.677 209.510 C 243.477 190.110,244.001 191.902,238.459 191.676 C 232.553 191.435,230.438 188.828,233.484 185.545 C 234.389 184.571,234.761 184.479,238.385 184.333 C 243.727 184.118,243.484 184.469,243.690 176.685 C 243.785 173.118,244.010 169.865,244.191 169.456 C 244.979 167.672,250.056 167.086,251.576 168.604 M41.684 175.975 C 40.960 176.157,40.045 176.597,39.652 176.953 C 39.259 177.309,38.761 177.600,38.547 177.600 C 38.026 177.600,35.600 180.124,35.600 180.665 C 35.600 180.900,35.243 181.546,34.807 182.100 C 34.237 182.825,33.890 184.215,33.576 187.034 C 33.335 189.193,32.908 191.418,32.626 191.979 C 32.344 192.541,31.906 195.070,31.652 197.600 C 31.398 200.130,30.916 202.987,30.580 203.949 C 30.245 204.911,29.812 207.370,29.619 209.412 C 29.425 211.455,29.048 213.537,28.779 214.039 C 27.038 217.293,28.126 223.749,30.918 226.728 C 35.136 231.228,44.903 229.577,46.247 224.137 C 46.401 223.512,46.845 222.370,47.233 221.600 C 47.637 220.798,48.129 218.369,48.385 215.911 C 48.630 213.553,49.103 210.972,49.435 210.177 C 49.768 209.381,50.195 206.938,50.386 204.748 C 50.576 202.557,50.938 200.515,51.191 200.211 C 51.443 199.907,51.911 197.350,52.230 194.529 C 52.548 191.708,53.111 188.711,53.479 187.870 C 54.182 186.263,54.095 185.588,52.712 181.913 C 51.139 177.735,45.901 174.915,41.684 175.975 M47.449 177.654 C 51.889 179.597,52.877 182.494,51.875 190.639 C 51.510 193.604,51.031 196.369,50.809 196.783 C 50.587 197.197,50.207 199.305,49.964 201.468 C 49.720 203.631,49.193 206.480,48.792 207.800 C 48.391 209.120,47.947 211.550,47.806 213.200 C 47.665 214.850,47.221 217.370,46.820 218.800 C 46.419 220.230,45.889 222.120,45.642 223.000 C 43.588 230.314,32.632 230.100,29.645 222.687 C 28.713 220.375,28.705 219.878,29.545 216.600 C 29.770 215.720,30.139 213.190,30.365 210.979 C 30.590 208.767,31.031 206.337,31.344 205.579 C 31.656 204.820,32.044 202.670,32.205 200.800 C 32.367 198.930,32.762 196.410,33.085 195.200 C 33.407 193.990,33.918 191.046,34.221 188.658 C 34.523 186.271,34.934 184.111,35.133 183.858 C 35.333 183.606,35.704 182.751,35.959 181.959 C 37.280 177.855,43.006 175.709,47.449 177.654 M149.400 182.398 C 148.960 182.605,146.382 183.034,143.671 183.352 C 140.783 183.690,138.464 184.164,138.071 184.495 C 137.702 184.807,136.643 185.278,135.718 185.542 C 134.793 185.806,133.794 186.263,133.499 186.558 C 133.204 186.853,132.521 187.228,131.981 187.390 C 131.442 187.553,130.235 188.424,129.300 189.326 C 124.497 193.961,130.158 199.686,135.580 195.678 C 136.187 195.229,137.422 194.663,138.324 194.421 C 139.226 194.178,140.235 193.708,140.565 193.378 C 140.947 192.995,142.811 192.581,145.683 192.239 C 148.167 191.943,150.380 191.647,150.600 191.580 C 152.379 191.042,157.324 192.645,158.627 194.183 C 159.381 195.072,160.290 196.136,160.646 196.547 C 161.351 197.360,161.908 203.117,161.457 204.916 C 161.162 206.089,160.556 206.217,152.600 206.785 C 140.825 207.625,138.362 207.910,137.680 208.511 C 137.306 208.841,136.370 209.240,135.600 209.399 C 132.181 210.101,127.939 213.868,127.414 216.667 C 127.260 217.488,126.879 218.523,126.567 218.969 C 125.833 220.016,125.815 225.037,126.541 226.427 C 126.835 226.991,127.208 227.981,127.369 228.627 C 127.989 231.110,131.979 236.086,133.800 236.646 C 134.240 236.781,134.960 237.209,135.400 237.597 C 135.840 237.984,136.920 238.429,137.800 238.584 C 138.680 238.740,139.728 239.162,140.128 239.521 C 141.211 240.493,150.773 240.503,151.856 239.534 C 152.265 239.167,153.269 238.744,154.087 238.592 C 154.905 238.440,156.039 237.885,156.608 237.358 C 157.176 236.831,157.800 236.400,157.994 236.400 C 158.187 236.400,158.454 236.059,158.586 235.643 C 158.718 235.227,159.180 234.794,159.612 234.681 C 160.044 234.568,160.554 234.054,160.744 233.538 C 161.047 232.721,161.151 232.882,161.563 234.801 C 162.662 239.931,167.311 241.768,170.619 238.380 L 172.200 236.760 172.200 217.880 C 172.200 200.748,172.136 198.870,171.504 197.600 C 171.122 196.830,170.644 195.310,170.441 194.222 C 170.239 193.134,169.814 192.053,169.495 191.820 C 169.177 191.587,168.799 191.026,168.655 190.574 C 168.378 189.701,164.261 185.600,163.662 185.600 C 163.467 185.600,162.811 185.209,162.203 184.731 C 161.422 184.117,159.792 183.644,156.649 183.121 C 154.202 182.713,151.750 182.299,151.200 182.201 C 150.650 182.102,149.840 182.191,149.400 182.398 M205.800 182.358 C 205.360 182.538,203.470 182.905,201.600 183.174 C 198.025 183.687,196.000 184.282,196.000 184.817 C 196.000 184.993,195.489 185.249,194.865 185.386 C 193.065 185.781,188.107 190.548,187.545 192.424 C 187.286 193.291,186.939 194.000,186.776 194.000 C 185.472 194.000,185.107 202.861,186.345 204.446 C 186.755 204.971,187.228 205.850,187.398 206.400 C 187.937 208.152,192.905 212.375,194.446 212.393 C 194.801 212.397,195.567 212.774,196.148 213.230 C 196.769 213.719,198.232 214.208,199.702 214.418 C 201.076 214.615,202.913 215.141,203.785 215.588 C 204.670 216.042,206.170 216.406,207.185 216.413 C 208.282 216.420,209.791 216.814,211.000 217.409 C 212.100 217.950,213.370 218.394,213.822 218.396 C 217.368 218.412,219.114 225.356,216.300 228.253 C 215.585 228.989,214.723 229.593,214.385 229.596 C 214.046 229.598,213.056 229.993,212.185 230.474 C 210.049 231.651,202.151 231.805,200.141 230.709 C 199.448 230.331,198.064 229.838,197.064 229.614 C 196.064 229.390,194.580 228.755,193.767 228.203 C 192.954 227.652,192.117 227.200,191.907 227.200 C 191.698 227.200,191.069 226.840,190.509 226.400 C 187.882 224.333,183.606 226.327,183.602 229.621 C 183.600 230.972,185.590 234.400,186.376 234.400 C 186.545 234.400,187.151 234.834,187.724 235.364 C 188.296 235.895,189.331 236.453,190.023 236.605 C 190.715 236.757,191.596 237.196,191.981 237.581 C 192.366 237.966,193.601 238.403,194.724 238.552 C 195.848 238.701,196.865 238.982,196.985 239.176 C 197.810 240.510,211.406 240.780,213.814 239.509 C 214.481 239.157,215.741 238.744,216.614 238.591 C 218.126 238.326,220.472 237.048,222.200 235.547 C 224.851 233.243,226.100 231.826,226.481 230.689 C 226.719 229.980,227.203 229.066,227.557 228.657 C 228.662 227.381,228.473 219.727,227.300 218.236 C 226.805 217.607,226.400 216.879,226.400 216.618 C 226.400 216.358,225.995 215.761,225.500 215.292 C 225.005 214.823,224.420 214.246,224.200 214.011 C 223.066 212.796,221.499 211.600,221.041 211.600 C 220.757 211.600,220.206 211.249,219.817 210.819 C 219.429 210.390,218.103 209.829,216.871 209.573 C 215.640 209.318,214.256 208.862,213.797 208.561 C 213.338 208.261,211.549 207.818,209.822 207.578 C 208.095 207.338,206.303 206.902,205.841 206.610 C 205.378 206.318,204.071 205.887,202.935 205.652 C 201.799 205.416,200.199 204.768,199.379 204.212 C 198.559 203.655,197.650 203.200,197.358 203.200 C 196.932 203.200,196.299 200.690,196.299 199.000 C 196.299 197.196,196.929 194.800,197.405 194.800 C 197.722 194.800,198.273 194.355,198.630 193.811 C 199.046 193.176,199.801 192.735,200.739 192.580 C 201.543 192.447,203.042 192.051,204.071 191.700 C 206.039 191.030,205.718 190.999,213.890 192.632 C 214.379 192.730,215.439 193.258,216.245 193.805 C 217.052 194.352,217.900 194.800,218.130 194.800 C 218.360 194.800,218.920 195.128,219.374 195.529 C 224.058 199.665,229.824 194.086,225.609 189.496 C 223.296 186.978,221.642 185.722,220.173 185.372 C 219.528 185.218,218.691 184.824,218.314 184.497 C 217.930 184.164,215.547 183.582,212.914 183.179 C 210.321 182.781,207.840 182.361,207.400 182.244 C 206.960 182.127,206.240 182.178,205.800 182.358 M324.200 182.584 C 323.100 182.891,321.083 183.266,319.717 183.416 C 318.049 183.600,316.809 184.003,315.939 184.645 C 315.227 185.170,314.335 185.600,313.956 185.600 C 313.259 185.600,311.926 186.561,310.038 188.425 C 309.467 188.988,308.685 189.567,308.300 189.712 C 307.915 189.857,307.600 190.244,307.600 190.573 C 307.600 190.903,307.240 191.365,306.799 191.600 C 306.359 191.836,305.721 192.607,305.382 193.314 C 305.042 194.021,304.243 195.500,303.606 196.600 C 301.848 199.636,301.728 199.986,301.411 202.998 C 301.248 204.536,300.844 206.473,300.513 207.301 C 299.825 209.020,299.973 212.336,300.953 217.200 C 301.286 218.850,301.567 220.875,301.579 221.700 C 301.592 222.617,301.895 223.495,302.359 223.959 C 302.777 224.377,303.241 225.278,303.392 225.962 C 303.653 227.151,304.330 228.154,306.300 230.270 C 306.795 230.801,307.200 231.372,307.200 231.537 C 307.200 231.914,310.133 234.800,310.517 234.800 C 310.673 234.800,311.115 235.083,311.500 235.430 C 313.173 236.935,315.947 238.316,317.771 238.550 C 318.855 238.690,320.089 239.118,320.513 239.502 C 321.627 240.511,333.143 240.539,335.086 239.537 C 335.794 239.173,337.144 238.757,338.086 238.613 C 340.122 238.302,342.000 237.623,342.000 237.199 C 342.000 237.032,342.817 236.689,343.816 236.438 C 344.815 236.186,345.728 235.731,345.845 235.427 C 345.962 235.122,346.585 234.655,347.229 234.388 C 347.873 234.121,348.400 233.668,348.400 233.380 C 348.400 233.092,348.691 232.566,349.046 232.211 C 350.110 231.147,350.450 228.856,349.666 228.031 C 349.300 227.645,348.802 226.986,348.559 226.565 C 347.920 225.456,344.996 225.305,343.634 226.311 C 343.065 226.730,341.939 227.291,341.132 227.557 C 340.325 227.823,339.458 228.289,339.206 228.593 C 338.954 228.897,337.817 229.345,336.679 229.589 C 335.541 229.833,334.158 230.340,333.605 230.716 C 332.146 231.708,324.032 231.714,322.937 230.723 C 322.525 230.351,321.411 229.872,320.461 229.658 C 318.683 229.259,318.383 229.059,316.000 226.682 C 313.596 224.284,312.775 222.902,312.405 220.633 C 312.209 219.425,311.857 218.081,311.624 217.645 C 309.744 214.132,310.413 214.000,330.137 214.000 C 348.429 214.000,347.254 214.126,349.647 211.900 C 350.642 210.975,350.712 203.504,349.750 201.000 C 349.411 200.120,348.905 198.500,348.625 197.400 C 348.066 195.205,345.843 191.528,344.081 189.884 C 343.795 189.618,343.345 189.166,343.081 188.881 C 342.816 188.595,342.366 188.145,342.081 187.881 C 341.795 187.616,341.255 187.104,340.881 186.742 C 340.506 186.380,339.570 185.790,338.800 185.431 C 338.030 185.072,336.950 184.516,336.400 184.195 C 335.850 183.874,335.040 183.609,334.600 183.606 C 334.160 183.603,332.540 183.326,331.000 182.992 C 326.478 182.010,326.292 181.999,324.200 182.584 M155.951 183.777 C 164.006 184.466,169.052 189.587,170.756 198.800 C 171.839 204.651,172.064 234.343,171.041 236.321 C 168.816 240.623,163.048 239.403,162.155 234.442 C 161.697 231.897,161.391 231.930,158.378 234.848 C 156.309 236.853,155.111 237.692,153.879 238.001 C 152.956 238.232,151.609 238.686,150.886 239.010 C 150.141 239.345,148.410 239.597,146.886 239.592 C 126.253 239.530,118.718 215.556,137.400 209.408 C 141.081 208.196,142.556 208.008,151.009 207.669 C 162.611 207.203,162.939 206.990,162.115 200.465 C 161.401 194.802,159.723 192.762,154.484 191.188 L 151.567 190.312 146.115 191.366 C 143.116 191.945,140.109 192.752,139.431 193.158 C 138.754 193.565,137.710 194.013,137.110 194.154 C 136.511 194.295,135.361 194.858,134.555 195.405 C 130.037 198.471,126.015 193.692,129.910 189.887 C 131.316 188.515,136.436 185.604,137.449 185.601 C 137.696 185.601,138.686 185.253,139.649 184.829 C 140.754 184.342,142.875 183.952,145.400 183.772 C 147.600 183.616,149.760 183.356,150.200 183.195 C 150.640 183.034,151.360 183.035,151.800 183.197 C 152.240 183.358,154.108 183.620,155.951 183.777 M282.200 182.987 C 281.980 183.066,281.332 183.232,280.759 183.358 C 280.165 183.488,279.265 184.241,278.659 185.114 L 277.600 186.643 277.600 211.738 L 277.600 236.832 279.300 238.411 C 280.809 239.812,281.225 239.990,283.000 239.990 C 284.775 239.990,285.191 239.812,286.700 238.411 L 288.400 236.832 288.398 211.516 L 288.396 186.200 287.018 184.700 C 286.261 183.875,285.317 183.198,284.920 183.195 C 284.524 183.192,283.840 183.112,283.400 183.017 C 282.960 182.922,282.420 182.909,282.200 182.987 M366.600 182.997 C 366.380 183.070,365.741 183.230,365.179 183.353 C 364.567 183.486,363.726 184.236,363.079 185.224 L 362.000 186.872 362.000 211.289 C 362.000 235.208,362.017 235.733,362.820 237.033 C 364.351 239.510,368.206 240.895,369.671 239.495 C 369.962 239.217,370.683 238.681,371.273 238.304 L 372.345 237.618 372.473 220.850 C 372.587 205.842,372.670 204.005,373.270 203.342 C 373.638 202.934,374.156 201.739,374.421 200.687 C 374.696 199.594,375.223 198.602,375.651 198.373 C 376.063 198.152,376.400 197.704,376.400 197.376 C 376.400 197.048,376.850 196.609,377.400 196.400 C 377.950 196.191,378.400 195.752,378.400 195.425 C 378.400 195.071,379.040 194.658,379.982 194.405 C 380.852 194.171,381.846 193.696,382.192 193.351 C 382.648 192.895,383.939 192.667,386.910 192.518 C 392.339 192.245,394.641 190.863,394.861 187.745 C 394.976 186.122,394.074 183.674,393.275 183.440 C 390.083 182.505,381.991 183.320,380.159 184.760 C 379.572 185.222,378.848 185.600,378.549 185.600 C 378.251 185.600,377.782 185.960,377.507 186.400 C 377.232 186.840,376.794 187.200,376.532 187.200 C 375.764 187.200,373.203 189.827,373.172 190.647 C 373.116 192.142,372.458 189.911,372.428 188.126 C 372.368 184.575,369.489 182.040,366.600 182.997 M213.800 183.998 C 216.920 184.410,221.817 186.752,224.273 189.006 C 227.804 192.249,226.893 196.765,222.816 196.227 C 221.211 196.016,220.219 195.515,216.758 193.169 C 216.185 192.780,214.925 192.255,213.958 192.001 C 212.991 191.747,211.429 191.283,210.486 190.970 C 204.824 189.088,197.169 192.232,195.780 197.009 C 194.164 202.570,197.843 205.753,208.488 208.002 C 210.407 208.407,212.160 208.852,212.384 208.990 C 212.607 209.128,213.784 209.500,214.998 209.816 C 228.198 213.254,231.919 226.317,222.123 234.828 C 216.207 239.968,200.047 241.057,192.188 236.845 C 191.321 236.380,190.429 235.997,190.206 235.993 C 188.379 235.960,184.400 231.627,184.400 229.671 C 184.400 225.703,189.241 225.367,193.600 229.033 C 193.930 229.311,194.740 229.666,195.400 229.822 C 196.060 229.978,197.410 230.483,198.400 230.944 C 201.397 232.339,210.590 232.198,213.614 230.712 C 217.435 228.833,218.200 227.715,218.200 224.006 C 218.200 219.422,216.205 217.758,208.600 215.998 C 200.259 214.069,196.127 212.678,192.600 210.614 C 190.446 209.353,188.000 207.041,188.000 206.266 C 188.000 206.003,187.640 205.116,187.200 204.296 C 184.894 199.992,186.756 193.163,191.395 188.914 C 196.947 183.829,202.796 182.546,213.800 183.998 M330.302 183.632 C 341.784 184.912,349.076 193.729,349.508 206.856 L 349.648 211.111 348.324 212.056 L 347.000 213.000 328.915 213.115 L 310.830 213.231 310.555 214.699 C 310.396 215.546,310.486 216.852,310.768 217.784 C 311.036 218.673,311.515 220.299,311.831 221.399 C 312.973 225.369,315.446 228.066,320.000 230.310 C 323.891 232.226,331.844 232.531,335.278 230.895 C 336.311 230.403,337.339 230.000,337.562 230.000 C 337.785 230.000,339.520 229.201,341.419 228.224 C 346.297 225.714,346.881 225.635,348.162 227.314 C 350.271 230.079,346.865 235.992,343.159 236.001 C 342.851 236.002,342.000 236.369,341.266 236.816 C 333.750 241.399,318.028 239.874,310.576 233.839 C 307.800 231.592,304.000 226.930,304.000 225.773 C 304.000 225.561,303.639 224.714,303.197 223.890 C 302.755 223.066,302.212 220.998,301.990 219.296 C 301.767 217.593,301.382 214.733,301.134 212.940 C 300.886 211.147,300.816 209.347,300.977 208.940 C 301.138 208.533,301.507 206.580,301.797 204.600 C 302.294 201.201,303.139 198.951,305.615 194.435 C 307.213 191.520,313.133 186.000,314.662 186.000 C 314.854 186.000,315.729 185.604,316.606 185.120 C 317.930 184.389,321.557 183.660,325.916 183.249 C 326.199 183.222,328.173 183.394,330.302 183.632 M90.000 183.848 C 89.282 184.091,86.046 185.519,85.200 185.967 C 83.785 186.716,81.706 190.439,81.440 192.701 C 81.294 193.937,80.981 195.182,80.743 195.468 C 80.506 195.755,80.058 198.197,79.750 200.895 C 79.441 203.593,78.921 206.597,78.594 207.571 C 76.960 212.443,80.101 220.400,83.659 220.400 C 83.963 220.400,84.874 220.755,85.684 221.189 L 87.157 221.978 90.269 220.991 C 93.355 220.011,96.400 217.678,96.400 216.293 C 96.400 216.015,96.762 215.114,97.204 214.289 C 97.705 213.353,98.152 211.393,98.393 209.069 C 98.605 207.023,99.041 204.721,99.362 203.953 C 102.081 197.445,100.320 187.190,96.200 185.547 C 95.540 185.284,94.730 184.847,94.400 184.578 C 93.711 184.015,90.891 183.547,90.000 183.848 M286.371 185.091 L 287.600 186.582 287.600 211.402 C 287.600 238.965,287.746 237.478,284.927 238.656 C 283.122 239.410,281.108 239.009,279.593 237.594 L 278.400 236.479 278.400 211.518 L 278.400 186.556 279.754 185.078 C 281.753 182.896,284.566 182.902,286.371 185.091 M370.380 184.779 C 371.244 185.704,371.538 186.499,371.744 188.468 C 372.079 191.670,372.861 192.617,373.750 190.897 C 374.092 190.236,374.963 189.230,375.686 188.662 C 376.409 188.094,377.303 187.364,377.674 187.040 C 382.046 183.222,393.155 182.457,394.144 185.905 C 395.154 189.424,392.814 191.349,387.008 191.778 C 380.862 192.232,376.087 195.416,373.478 200.800 L 372.218 203.400 372.009 220.138 L 371.800 236.877 370.641 237.800 C 368.066 239.853,364.547 239.150,363.431 236.361 C 362.291 233.511,362.498 187.757,363.660 185.788 C 365.156 183.253,368.487 182.753,370.380 184.779 M14.003 185.048 C 9.912 187.298,8.284 190.188,7.598 196.416 C 7.356 198.618,6.901 201.147,6.587 202.036 C 4.988 206.568,5.065 215.111,6.721 216.911 C 8.760 219.126,9.915 220.040,11.186 220.446 C 11.964 220.694,12.771 221.055,12.980 221.248 C 13.563 221.788,15.381 221.667,16.654 221.002 C 17.284 220.674,18.083 220.404,18.429 220.402 C 20.599 220.394,23.780 216.288,24.388 212.711 C 24.622 211.330,25.075 209.300,25.393 208.200 C 25.711 207.100,26.160 204.428,26.391 202.263 C 26.623 200.097,27.015 197.945,27.264 197.480 C 31.004 190.492,21.058 181.167,14.003 185.048 M94.800 185.884 C 99.795 188.152,101.016 192.398,99.031 200.600 C 98.499 202.800,97.940 205.916,97.789 207.525 C 97.254 213.217,94.624 218.542,91.834 219.580 C 83.933 222.522,78.304 217.431,79.568 208.488 C 80.690 200.552,80.892 199.302,81.396 197.200 C 81.686 195.990,82.046 194.100,82.196 193.000 C 82.507 190.723,84.767 186.946,86.139 186.412 C 86.612 186.228,87.877 185.722,88.950 185.289 C 91.131 184.407,91.666 184.461,94.800 185.884 M20.849 185.720 C 26.003 187.820,26.875 190.171,25.843 199.191 C 25.486 202.312,24.994 205.237,24.750 205.693 C 24.506 206.149,24.081 208.252,23.804 210.368 C 22.849 217.674,19.132 220.800,12.572 219.817 C 10.524 219.510,7.023 216.429,6.542 214.509 C 6.134 212.886,6.678 205.520,7.317 204.000 C 7.641 203.230,8.119 200.501,8.378 197.936 C 8.685 194.906,9.122 192.738,9.625 191.751 C 10.051 190.915,10.400 189.993,10.400 189.702 C 10.400 188.461,13.168 186.406,15.884 185.631 C 17.378 185.205,18.600 184.845,18.600 184.830 C 18.600 184.816,19.612 185.216,20.849 185.720 M324.400 190.419 C 318.097 191.255,313.530 195.532,311.255 202.728 C 309.910 206.985,309.232 206.800,326.171 206.800 C 342.982 206.800,342.999 206.794,340.960 201.400 C 340.627 200.520,340.210 199.350,340.033 198.800 C 338.200 193.108,331.441 189.485,324.400 190.419 M329.020 191.145 C 329.229 191.335,330.587 191.780,332.037 192.134 C 334.590 192.757,337.600 194.781,337.600 195.874 C 337.600 196.104,337.977 196.772,338.438 197.358 C 338.899 197.944,339.529 199.543,339.838 200.912 C 340.148 202.280,340.487 203.778,340.593 204.239 C 340.958 205.837,339.600 206.000,325.955 206.000 C 312.783 206.000,311.264 205.836,311.801 204.469 C 311.945 204.101,312.225 202.827,312.421 201.637 C 312.621 200.427,313.136 199.094,313.589 198.611 C 314.035 198.137,314.400 197.579,314.400 197.372 C 314.400 196.005,319.027 192.676,321.903 191.975 C 323.544 191.575,324.987 191.147,325.110 191.024 C 325.466 190.668,328.601 190.765,329.020 191.145 M147.656 213.804 C 139.626 214.671,136.400 217.122,136.400 222.358 C 136.400 225.374,138.131 228.842,140.146 229.862 C 140.836 230.211,141.674 230.736,142.010 231.029 C 143.731 232.530,151.536 232.351,154.146 230.749 C 156.390 229.372,159.530 226.453,159.839 225.458 C 159.985 224.986,160.449 224.111,160.870 223.514 C 162.051 221.836,162.706 215.526,161.836 214.198 C 161.066 213.023,156.162 212.887,147.656 213.804 M161.444 215.032 C 161.947 217.037,161.372 221.456,160.456 222.620 C 159.985 223.218,159.600 223.993,159.600 224.342 C 159.600 225.068,155.261 229.600,154.566 229.600 C 154.314 229.600,153.593 230.005,152.964 230.499 C 151.242 231.855,143.855 231.855,142.500 230.500 C 142.005 230.005,141.364 229.600,141.075 229.600 C 140.244 229.600,138.542 227.542,138.019 225.906 C 137.756 225.084,137.375 224.308,137.171 224.182 C 135.848 223.365,138.293 216.983,140.081 216.585 C 140.676 216.453,141.643 215.967,142.230 215.505 C 143.375 214.604,147.492 214.199,156.892 214.062 L 161.185 214.000 161.444 215.032 " stroke="none" fill="#6d7e8e" fill-rule="evenodd"></path></g></svg>